<?xml version="1.0" encoding="utf-8"?>
<!-- Generator: Adobe Illustrator 21.1.0, SVG Export Plug-In . SVG Version: 6.00 Build 0)  -->
<svg version="1.1" id="Layer_1" xmlns="http://www.w3.org/2000/svg" xmlns:xlink="http://www.w3.org/1999/xlink" x="0px" y="0px"
	 viewBox="0 0 367.2 367.2" style="enable-background:new 0 0 367.2 367.2;" xml:space="preserve">
<style type="text/css">
	.st0{fill:#FFFFFF;}
	.st1{fill:#FFFFFF;stroke:#000000;stroke-width:0.1561;}
	.st2{fill:#FFFFFF;stroke:#000000;}
</style>
<g id="Layer_2">
</g>
<g id="Layer_1_1_">
	<path class="st0" d="M183.6,362.9c-98.8,0-178.9-81.1-178.9-179.8S84.8,4.2,183.6,4.2s178.9,80.1,178.9,178.9
		C362.5,281.7,282.2,362.9,183.6,362.9z M183.6,23.8c-87.9,0-159.4,71.4-159.4,159.4s71.4,159.4,159.4,159.4S343,271.2,343,183.2
		C342.9,95,271.5,23.8,183.6,23.8z"/>
	<path class="st1" d="M141.5,202.7"/>
	<path class="st0" d="M183.6,341.4l-2.9-1c-4-1.9-105.5-45.9-105.5-127.1V68.8h217v146.6c0,77.2-100.6,122.3-105.5,124.1
		L183.6,341.4z M90.8,83.4v130c0,64.5,77.2,104.6,93.8,112.4c15.8-7.8,93.8-48.9,93.8-109.5v-132H90.7
		C90.8,84.3,90.8,83.4,90.8,83.4z"/>
	<path class="st0" d="M137.8,153.8l-1.9-1c0,0-11.8-6.9-18.6-11.8c-5.9-4-8.8-8.8-9.9-12.8c0-1,0-12.8,0-36.1v-4.9H169v4.9
		c0,23.5,0,35.2,0,36.1c0,4.9-2.9,8.8-8.8,12.8c-7.8,4.9-18.6,11.8-19.5,11.8L137.8,153.8z M116.1,96c0,12.8,0,29.4,0,31.2
		c0,1,1.9,4,4.9,5.9c4.9,2.9,11.8,7.8,15.8,9.9c4-1.9,11.8-6.9,16.6-9.9c1.9-1,4.9-2.9,4.9-4.9c0-1.9,0-17.6,0-31.2h-42.1v-1H116.1z
		"/>
	<path class="st0" d="M233.4,153.8l-1.9-1c0,0-11.8-6.9-18.6-11.8c-5.9-4-8.8-8.8-9.9-12.8c0-1,0-12.8,0-36.1v-4.9h61.6v4.9
		c0,23.5,0,35.2,0,36.1c0,4.9-2.9,8.8-8.8,12.8c-7.8,4.9-18.6,11.8-19.5,11.8L233.4,153.8z M212,96c0,12.8,0,29.4,0,31.2
		c0,1,1.9,4,4.9,5.9c4.9,2.9,11.7,7.8,15.8,9.9c4-1.9,11.7-6.9,16.6-9.9c1.9-1,4.9-2.9,4.9-4.9c0-1.9,0-17.6,0-31.2h-42v-1H212z"/>
	<rect x="79" y="156.7" class="st0" width="211.1" height="12.8"/>
	<g>
		<g>
			<path class="st0" d="M183.6,284.7c-4,0-5.9-2.9-6.9-4c-1-1-1.9-1.9-2.9-1.9c-5.9,0-9.9,0-14.6,1c-4.9,0-9.9,1-17.6,1
				s-13.6,0-13.6,0h-5.9V182h5.9c4,0,8.8,0,16.6,0c4,0,7.8-1,12.8-1c2.9,0,5.9-1,8.8-1c6.9-1,12.8,1,13.6,1c1.9,0,2.9,1,4.9,1.9
				c1-1,2.9-1,4.9-1.9c0,0,6.9-1,13.6-1c2.9,0,5.9,1,8.8,1c4.9,1,8.8,1,12.8,1c7.7,0,12.7,0,16.6,0h5.9v98.8h-5.8c0,0-5.9,0-13.6,0
				c-7.8,0-12.8-1-17.6-1c-4.9,0-8.8-1-14.6-1c-1.9,0-1.9,0-2.9,1.9C189.5,282.8,187.5,284.7,183.6,284.7z M173.8,268
				c4.9,0,8.8,1.9,10.8,4c1.9-1.9,5.9-4,10.8-4c5.9,0,10.8,0,15.8,1c4.9,0,9.9,1,16.6,1c2.9,0,4.9,0,6.9,0v-76.1
				c-2.9,0-6.9,0-10.8,0c-3.9,0-8.8-1-13.6-1c-2.9,0-5.9-1-8.8-1c-4.9-1-9.9,0-9.9,0c-1,0-1.9,1-1.9,1s0,0,1-1l-5.9-1l-5.9,1
				c0,1,0,1,1,1c0,0,0,0-1.9-1l0,0c0,0-4.9-1-9.9,0c-2.9,0-5.9,1-8.8,1c-4.9,1-9.9,1-13.6,1c-4.9,0-7.8,0-10.8,0V270
				c1.9,0,4.9,0,6.9,0c6.9,0,11.8-1,16.6-1C163.1,268,167,268,173.8,268z"/>
		</g>
	</g>
	<rect x="111.3" y="105.9" class="st0" width="50.7" height="8.8"/>
	<rect x="178.6" y="159.7" class="st0" width="11.7" height="173.9"/>
	<polygon class="st0" points="255,125.4 232.5,110.8 212,125.4 206.1,118.5 232.5,100 259.8,118.5 	"/>
	<path class="st2" d="M231.5,126.4"/>
	<rect x="141.5" y="204.5" class="st0" width="25.4" height="8.8"/>
	<rect x="141.5" y="225" class="st0" width="25.4" height="8.8"/>
	<rect x="141.5" y="245.7" class="st0" width="25.4" height="8.8"/>
	<rect x="198.2" y="204.5" class="st0" width="25.4" height="8.8"/>
	<rect x="198.2" y="225" class="st0" width="25.4" height="8.8"/>
	<rect x="198.2" y="245.7" class="st0" width="25.4" height="8.8"/>
</g>
</svg>
