<?xml version="1.0" encoding="utf-8"?>
<!-- Generator: Adobe Illustrator 22.1.0, SVG Export Plug-In . SVG Version: 6.00 Build 0)  -->
<svg version="1.1" id="Layer_1" xmlns="http://www.w3.org/2000/svg" xmlns:xlink="http://www.w3.org/1999/xlink" x="0px" y="0px"
	 width="317.8px" height="52.8px" viewBox="0 0 317.8 52.8" style="enable-background:new 0 0 317.8 52.8;" xml:space="preserve">
<style type="text/css">
	.st0{fill:#222222;}
	.st1{font-family:'Montserrat-Regular';}
	.st2{font-size:15.9295px;}
	.st3{fill:#B32025;}
</style>
<text transform="matrix(1 0 0 1 60.0972 30.5887)" class="st0 st1 st2">CORNELL UNIVERSITY LIBRARY</text>
<path class="st3" d="M21.5,39c2.7,2.2,5.4,3.3,5.5,3.3l0.2,0.1l0.2-0.1c0.1,0,2.8-1.2,5.5-3.3c3.7-2.9,5.6-6.1,5.6-9.5l0-15.2
	l-22.7,0l0,14.9C15.9,32.7,17.8,36,21.5,39z M26.7,34.3c-0.1,0-0.2-0.1-0.4-0.1h0c-0.6,0-1,0-1.4,0.1c-0.4,0-0.9,0.1-1.5,0.1
	c-0.3,0-0.6,0-0.8,0v-7.1h0.1c0.3,0,0.6,0,1,0c0.4,0,0.7-0.1,1.2-0.1c0.2,0,0.5-0.1,0.8-0.1c0.5-0.1,0.9,0,0.9,0c0,0,0.1,0,0.1,0
	L26.7,34.3L26.7,34.3z M37.5,29.5c0,6.2-7.6,10.4-9.9,11.5v-5.6c0,0,0.1-0.1,0.1-0.1c0.1-0.1,0.2-0.2,0.4-0.2c0.5,0,0.9,0,1.4,0.1
	c0.4,0,0.9,0.1,1.6,0.1c0.7,0,1.2,0,1.2,0l0.4,0l0-2.1h0.9v-1.1h-0.9l0-2h0.9v-1.1h-0.9l0-2.3l-0.4,0c-0.1,0-0.3,0-0.5,0
	c-0.3,0-0.6,0-1,0c-0.3,0-0.7,0-1.1-0.1c-0.3,0-0.5-0.1-0.8-0.1c-0.6-0.1-1.1,0-1.2,0c0,0,0,0,0,0v-2.2h9.9L37.5,29.5z M27.6,34.3
	v-7.1c0.1,0,0.1,0,0.2-0.1c0,0,0.4-0.1,0.9,0c0.3,0,0.6,0.1,0.8,0.1c0.5,0,0.8,0.1,1.2,0.1c0.4,0,0.7,0,0.9,0h0.2l0,7.1
	c-0.2,0-0.5,0-0.8,0c-0.7,0-1.1-0.1-1.5-0.1c-0.4,0-0.8-0.1-1.4-0.1C27.9,34.2,27.8,34.3,27.6,34.3z M16.9,15.4l20.6,0l0,7.7H16.9
	L16.9,15.4z M16.9,24.2h9.8v2.1c-0.2,0-0.6-0.1-1.1,0c-0.3,0-0.6,0.1-0.8,0.1c-0.4,0-0.8,0.1-1.1,0.1c-0.4,0-0.7,0-1,0
	c-0.2,0-0.4,0-0.5,0l-0.4,0v2.1h-1v1.1h1v2.1h-1v1.1h1v2.3l0.4,0c0,0,0.5,0,1.2,0c0.7,0,1.2-0.1,1.6-0.1c0.4,0,0.8-0.1,1.3-0.1
	c0.2,0,0.3,0.1,0.4,0.2c0,0,0,0,0.1,0.1V41c-2.4-1.2-9.8-5.3-9.8-11.7L16.9,24.2z M25.5,16.2h-5.7v0.4c0,1.3,0,3.4,0,3.5
	c0,0.4,0.3,0.8,0.9,1.2c0.7,0.5,1.7,1.1,1.8,1.1l0.2,0.1l0.2-0.1c0,0,1.2-0.6,1.9-1.1c0.8-0.5,0.8-1,0.8-1.2c0-0.1,0-1.9,0-3.5
	L25.5,16.2L25.5,16.2z M20.6,17h4.1c0,0.3,0,0.7,0,1h-4.1C20.6,17.7,20.6,17.3,20.6,17z M24.7,20c0,0.2-0.3,0.4-0.5,0.6
	c-0.5,0.3-1.2,0.8-1.6,1c-0.3-0.2-1-0.6-1.5-1c-0.3-0.2-0.5-0.4-0.5-0.6c0-0.1,0-0.5,0-1.2h4.1C24.7,19.5,24.7,20,24.7,20z M35.3,16
	h-5.9v0.4c0,1.6,0,3.5,0,3.6c0,0.4,0.3,0.8,0.9,1.2c0.7,0.5,1.8,1.1,1.8,1.1l0.2,0.1l0.2-0.1c0,0,1.2-0.6,1.9-1.1
	c0.8-0.6,0.8-1.1,0.8-1.2c0-0.1,0-2,0-3.6L35.3,16z M34.5,20c0,0.2-0.3,0.4-0.5,0.6c-0.5,0.3-1.3,0.8-1.6,1c-0.3-0.2-1.1-0.6-1.6-1
	c-0.2-0.1-0.5-0.4-0.5-0.6c0,0,0-0.1,0-0.2l2-1.5l2.2,1.5C34.5,19.9,34.5,19.9,34.5,20z M32.2,17.3l-2,1.5c0-0.6,0-1.3,0-1.9h4.3
	c0,0.6,0,1.3,0,1.9L32.2,17.3z M28.7,28.8l0.4,0c0.3,0,0.5,0.1,0.7,0.1l1.2,0l0-0.8l-1.2,0c-0.2,0-0.4,0-0.6-0.1l-0.4,0
	c-0.1,0-0.2,0-0.3,0l0,0.8C28.5,28.8,28.6,28.8,28.7,28.8z M29.8,30.3c-0.2,0-0.4,0-0.6-0.1c-0.1,0-0.3,0-0.4,0c-0.1,0-0.2,0-0.3,0
	l0,0.8c0.1,0,0.1,0,0.2,0c0.1,0,0.3,0,0.4,0c0.2,0,0.5,0,0.7,0.1c0.2,0,0.6,0,0.9,0l0.3,0l0-0.8l-0.3,0C30.4,30.3,30,30.3,29.8,30.3
	z M29.8,32.6c-0.2,0-0.4,0-0.6-0.1c-0.1,0-0.3,0-0.4,0c-0.1,0-0.2,0-0.3,0l0,0.8c0.1,0,0.1,0,0.2,0c0.1,0,0.3,0,0.4,0
	c0.3,0,0.5,0.1,0.7,0.1l0.3,0c0.3,0,0.7,0,0.9,0l0-0.8c-0.1,0-0.5,0-0.8,0L29.8,32.6z M24.7,28.9c0.2,0,0.4,0,0.7-0.1
	c0.1,0,0.2,0,0.4,0c0.1,0,0.1,0,0.2,0l0-0.8c-0.1,0-0.2,0-0.3,0c-0.1,0-0.3,0-0.4,0c-0.2,0-0.4,0-0.6,0.1l-1.2,0l0,0.8L24.7,28.9z
	 M25.3,30.2c-0.2,0-0.4,0-0.6,0.1l-1.2,0l0,0.8l1.2,0c0.2,0,0.4,0,0.7-0.1l0.4,0c0.1,0,0.1,0,0.2,0l0-0.8c-0.1,0-0.2,0-0.3,0
	L25.3,30.2z M25.3,32.6c-0.2,0-0.4,0-0.7,0.1c-0.4,0-1,0-1.1,0l0,0.8c0.2,0,0.8,0,1.2,0c0.2,0,0.4,0,0.7-0.1l0.4,0
	c0.1,0,0.1,0,0.2,0l0-0.8c-0.1,0-0.2,0-0.3,0L25.3,32.6z M6.8,26.3c1,0,1.6-0.6,1.7-1.8c0-0.2,0-0.5-0.1-0.8l0-0.1l-0.8,0l0.1,0.2
	c0.1,0.1,0.1,0.4,0.1,0.6c0,0.6-0.5,0.9-1.1,0.9c-0.6,0-1-0.4-1-1c0-0.2,0-0.4,0.2-0.6l0.1-0.2l-0.8-0.1l0,0.1
	c-0.1,0.2-0.2,0.5-0.2,0.8c-0.1,1.2,0.6,1.9,1.7,2C6.7,26.3,6.7,26.3,6.8,26.3z M6.9,22.4c0.2,0.1,0.4,0.1,0.6,0.1
	c0.8,0,1.3-0.4,1.6-1.2C9.2,20.8,9.2,20.3,9,20c-0.2-0.4-0.6-0.7-1.2-0.8C7.6,19.1,7.4,19,7.2,19c-0.8,0-1.3,0.4-1.6,1.2
	C5.3,21.2,5.8,22.1,6.9,22.4z M6.4,20.5c0.1-0.4,0.5-0.5,0.8-0.5c0.1,0,0.3,0,0.4,0.1c0.4,0.1,0.6,0.3,0.8,0.5
	c0.1,0.2,0.1,0.3,0,0.5c-0.1,0.4-0.5,0.5-0.8,0.5c-0.1,0-0.3,0-0.5-0.1C6.7,21.4,6.2,21,6.4,20.5z M10.4,17.8l-1.2-0.6l0-0.1
	c0.1-0.2,0.2-0.2,0.4-0.2l1.2,0.1l0.5-0.9l-1.5-0.2c-0.1,0-0.2,0-0.3,0c0-0.3-0.2-0.6-0.5-0.8c-0.2-0.1-0.3-0.1-0.5-0.1
	c-0.6,0-0.9,0.6-1.1,1.1L6.9,17l3.1,1.6L10.4,17.8z M8.6,16.8L8.6,16.8L8,16.6l0-0.1c0.1-0.3,0.3-0.5,0.5-0.3c0.1,0,0.1,0.1,0.2,0.2
	C8.7,16.4,8.6,16.6,8.6,16.8z M12.3,14.8l-1.6-1.3l2.2,0.5l0.6-0.8L10.9,11l-0.5,0.7l1.6,1.3l-2.2-0.5l-0.6,0.8l2.7,2.2L12.3,14.8z
	 M16.2,11l-0.5-0.6l-1,0.8l-0.4-0.5l0.9-0.7l-0.5-0.6l-0.9,0.7l-0.4-0.4l1-0.8L14,8.3l-1.6,1.3l2.2,2.7L16.2,11z M19,9.3l-0.4-0.7
	l-1.1,0.6l-1.3-2.4l-0.8,0.4l1.7,3L19,9.3z M22,8.2l-0.3-0.7l-1.2,0.4l-0.9-2.6l-0.8,0.3L20,8.9L22,8.2z M25.5,7.6
	c0.1,0,0.1,0,0.2,0c0.5,0,0.8-0.2,1.1-0.4C27,6.9,27,6.6,27,6.2L26.8,4L25.9,4l0.2,2c0.1,0.7-0.2,0.8-0.5,0.8c0,0,0,0-0.1,0
	c-0.2,0-0.5-0.1-0.5-0.8l-0.2-2L24,4.2l0.2,2.2C24.2,7.2,24.7,7.6,25.5,7.6z M29.5,5.5l0.8,2.2l1,0.1l0.5-3.5l-0.8-0.1l-0.3,2
	l-0.8-2.2l-1-0.1l-0.5,3.5l0.8,0.1L29.5,5.5z M34.3,5.1l-0.8-0.3l-1,3.3l0.8,0.3L34.3,5.1z M38.6,7.1l-0.8-0.4l-1.7,1.7L36.5,6
	l-0.8-0.4l-0.5,3.6L36,9.7L38.6,7.1z M39.5,12.1l0.5-0.6l-1-0.8l0.4-0.5l0.9,0.7l0.5-0.6l-0.9-0.7l0.3-0.4l1,0.8l0.5-0.6L40,8
	l-2.1,2.7L39.5,12.1z M40.9,13.5l1-0.9l0.1,0.1c0.1,0.1,0.1,0.2,0,0.4l-0.5,1l0.6,0.7l0.7-1.4c0-0.1,0.1-0.2,0.1-0.3
	c0.3,0.1,0.7,0.1,0.9-0.2c0.7-0.7,0.1-1.3-0.3-1.8L43,10.6l-2.6,2.3L40.9,13.5z M43,11.7L43,11.7c0.2,0.2,0.3,0.4,0.3,0.5
	c0,0.1,0,0.1-0.1,0.2c-0.1,0.1-0.1,0.1-0.2,0.1c-0.1,0-0.3-0.2-0.4-0.3l-0.1-0.1L43,11.7z M44.2,16.3c-0.2,0.1-0.4-0.1-0.5-0.2
	c-0.1-0.2-0.2-0.4-0.2-0.7l0-0.2l-0.8,0.4l0.1,0.2c0.1,0.3,0.1,0.4,0.3,0.7c0.3,0.5,0.7,0.7,1.1,0.7c0.2,0,0.4-0.1,0.6-0.2
	c0.6-0.4,0.5-0.9,0.5-1.4c-0.1-0.3-0.1-0.5,0.1-0.6c0.1,0,0.1-0.1,0.2-0.1c0.2,0,0.3,0.2,0.3,0.2c0.1,0.2,0.2,0.4,0.2,0.6l0,0.2
	l0.7-0.3l0-0.1c-0.1-0.2-0.2-0.5-0.3-0.8c-0.4-0.6-1-0.8-1.6-0.5c-0.6,0.4-0.5,0.9-0.4,1.3C44.3,16,44.3,16.2,44.2,16.3z M44.6,19.5
	l3.2-1.3l-0.3-0.8l-3.2,1.3L44.6,19.5z M47.8,20.6l-2.7,0.7l0.2,0.9l2.7-0.7l0.2,0.9l0.7-0.2l-0.6-2.6l-0.7,0.2L47.8,20.6z
	 M45.8,24.8l0,0.9l1.4-0.1l2.2,1.1l-0.1-1l-1.3-0.6l1.2-0.7l-0.1-1l-2,1.4L45.8,24.8z M7.4,32.8l0.7-0.2l-0.3-1l0.5-0.2l0.3,1.1
	l0.7-0.2l-0.6-2l-3.3,1l0.2,0.9l1.4-0.4L7.4,32.8z M10.5,35.7c0.1-0.4,0.1-0.8-0.1-1.3c-0.3-0.6-0.8-1-1.4-1c-0.3,0-0.6,0.1-0.9,0.2
	c-0.5,0.3-0.9,0.6-1,1C6.9,35.1,7,35.5,7.2,36c0.3,0.6,0.8,1,1.4,1c0.3,0,0.6-0.1,0.9-0.2C10.1,36.5,10.4,36.1,10.5,35.7z M9.2,35.9
	c-0.2,0.1-0.4,0.2-0.6,0.2c-0.3,0-0.5-0.1-0.7-0.4c-0.1-0.2-0.1-0.4,0-0.5c0.1-0.2,0.3-0.5,0.6-0.6c0.2-0.1,0.4-0.2,0.6-0.2
	c0.3,0,0.5,0.1,0.7,0.4c0.1,0.2,0.1,0.4,0,0.5C9.7,35.5,9.5,35.7,9.2,35.9z M12.9,38.4l-1.6,1.2c-0.4,0.3-0.7,0.4-1,0.1
	c-0.1-0.1-0.1-0.2-0.1-0.4c0-0.2,0.2-0.4,0.4-0.6l1.6-1.2l-0.6-0.7L10,38.2c-0.4,0.3-0.5,0.6-0.6,0.9c0,0.3,0.1,0.7,0.4,1
	c0.3,0.4,0.7,0.6,1.1,0.6c0.3,0,0.6-0.1,0.9-0.3l1.7-1.4L12.9,38.4z M15.9,41.2l-1.3,1.6l0.5-2.3l-0.8-0.6l-2.2,2.7l0.7,0.5l1.3-1.6
	l-0.5,2.3l0.8,0.6l2.2-2.7L15.9,41.2z M18.5,42.9l-0.9-0.5L16,45.5l0.9,0.4c0.4,0.2,0.8,0.3,1.2,0.3c0.6,0,1.1-0.3,1.4-1
	C20,44.3,19.7,43.5,18.5,42.9z M18.6,44.9c-0.2,0.4-0.5,0.6-0.9,0.6c-0.1,0-0.3,0-0.4-0.1l-0.2-0.1l0.9-1.8l0.2,0.1
	c0.2,0.1,0.4,0.3,0.5,0.5C18.8,44.4,18.8,44.7,18.6,44.9z M20.4,47.5l2.1,0.6l0.2-0.7L21.4,47l0.2-0.6l1.1,0.3l0.2-0.7l-1.1-0.3
	l0.1-0.5l1.2,0.3l0.2-0.7l-2.1-0.6L20.4,47.5z M25.5,44.9l-1-0.1l-0.2,3.5l1,0.1c0.1,0,0.2,0,0.2,0c1.2,0,1.8-0.5,1.9-1.6
	c0-0.5-0.1-1-0.4-1.3C26.7,45.2,26.2,45,25.5,44.9z M25.5,47.7l-0.2,0l0.1-2l0.2,0c0.5,0,0.9,0.4,0.9,1C26.5,47.4,26,47.7,25.5,47.7
	z M30.5,44.7l-0.6,3.7l0.9-0.2l0.1-0.8l1.1-0.2l0.4,0.7l1-0.2l-2.1-3.1L30.5,44.7z M31,46.6l0.1-0.9l0.5,0.8L31,46.6z M33.8,46.5
	l0.3,0.8l0.8-0.3l-0.3-0.8L33.8,46.5z M35.5,42.9l-0.9,0.5l1.7,3.1l0.9-0.5c1.2-0.6,1.5-1.5,0.9-2.5C37.5,42.5,36.6,42.3,35.5,42.9z
	 M36.9,45.3l-0.2,0.1l-0.9-1.7l0.2-0.1c0.1-0.1,0.3-0.1,0.5-0.1c0.4,0,0.7,0.2,0.8,0.5C37.6,44.5,37.3,45.1,36.9,45.3z M38.7,44
	l0.5,0.7l0.7-0.5l-0.5-0.7L38.7,44z M40.1,39.6L40,40.9l0.8,0.1l0.1-0.6l1.7,1.7l0.6-0.6l-2.4-2.5L40.1,39.6z M44.8,37.8
	c-0.3-0.2-0.6-0.2-1-0.1c0-0.3-0.2-0.6-0.4-0.8c-0.4-0.3-1-0.1-1.4,0.4c-0.4,0.6-0.4,1.1,0.1,1.5c0.2,0.2,0.6,0.2,0.9,0.1
	c0,0.4,0.1,0.7,0.4,0.9c0.2,0.1,0.4,0.2,0.6,0.2c0.4,0,0.7-0.2,1-0.6c0.2-0.3,0.3-0.7,0.3-1C45.2,38.2,45.1,37.9,44.8,37.8z
	 M43.2,38c-0.1,0.1-0.3,0.1-0.4,0.1c-0.1,0-0.1,0-0.1,0c-0.2-0.1-0.1-0.3,0-0.4c0.1-0.1,0.1-0.1,0.2-0.1c0.1,0,0.1,0,0.2,0.1
	C43.2,37.7,43.2,37.9,43.2,38z M44.4,38.9c-0.1,0.2-0.3,0.2-0.5,0.1c-0.1-0.1-0.2-0.2-0.1-0.5c0.3-0.2,0.4-0.2,0.6-0.1
	c0.1,0.1,0.1,0.1,0.1,0.2C44.5,38.8,44.4,38.9,44.4,38.9z M46.4,34.4c-0.6-0.3-1.2-0.1-1.5,0.5c-0.1,0.2-0.1,0.3-0.1,0.5
	c-0.2-0.2-0.4-0.5-0.2-0.8c0.1-0.2,0.2-0.3,0.3-0.4l0.1-0.1l-0.6-0.5l-0.1,0.1c-0.2,0.2-0.3,0.4-0.4,0.6c-0.2,0.3-0.2,0.7-0.1,1
	c0.2,0.6,0.8,0.9,1.2,1.2c0.4,0.2,0.7,0.3,1,0.3c0.4,0,0.8-0.2,1-0.7C47.4,35.3,47.1,34.7,46.4,34.4z M46.4,35.7
	c-0.1,0.1-0.1,0.2-0.3,0.2c-0.1,0-0.2,0-0.3-0.1c-0.2-0.1-0.3-0.2-0.3-0.3c0-0.1,0-0.1,0-0.2c0.1-0.1,0.1-0.2,0.3-0.2
	c0.1,0,0.2,0,0.3,0.1c0.1,0.1,0.3,0.2,0.3,0.3C46.4,35.5,46.4,35.6,46.4,35.7z M47.6,30.8c-0.7-0.2-1.3,0.1-1.5,0.8
	c0,0.1,0,0.1,0,0.2l-0.4-0.1l0.4-1.2l-0.7-0.2l-0.6,2l1.9,0.6l0-0.2c0-0.2,0-0.4,0.1-0.5c0-0.2,0.2-0.6,0.6-0.5
	c0.4,0.1,0.3,0.5,0.3,0.7c-0.1,0.2-0.2,0.4-0.3,0.5L47.2,33l0.8,0.3l0-0.1c0.1-0.2,0.3-0.5,0.3-0.7c0.1-0.4,0.1-0.8,0-1.1
	C48.2,31.1,48,30.9,47.6,30.8z M9.6,26.2c0,9.7,7.9,17.6,17.5,17.6c9.7,0,17.5-7.9,17.5-17.6c0-9.7-7.9-17.5-17.5-17.5
	C17.4,8.6,9.6,16.5,9.6,26.2z M27.1,9.2c9.3,0,16.9,7.6,16.9,16.9c0,9.3-7.6,16.9-16.9,16.9c-9.3,0-16.9-7.6-16.9-16.9
	C10.2,16.8,17.8,9.2,27.1,9.2z M27.1,2.2c-13.2,0-24,10.8-24,24c0,13.2,10.8,24,24,24c13.2,0,24-10.8,24-24
	C51.1,13,40.4,2.2,27.1,2.2z M27.1,49.6c-12.9,0-23.4-10.5-23.4-23.4c0-12.9,10.5-23.4,23.4-23.4c12.9,0,23.4,10.5,23.4,23.4
	C50.5,39.1,40,49.6,27.1,49.6z"/>
</svg>
