<?xml version="1.0" encoding="utf-8"?>
<!-- Generator: Adobe Illustrator 22.1.0, SVG Export Plug-In . SVG Version: 6.00 Build 0)  -->
<svg version="1.1" id="Layer_1" xmlns="http://www.w3.org/2000/svg" xmlns:xlink="http://www.w3.org/1999/xlink" x="0px" y="0px"
	 viewBox="0 0 675.1 103.3" style="enable-background:new 0 0 675.1 103.3;" xml:space="preserve">
<style type="text/css">
	.st0{fill:#222222;}
	.st1{font-family:'Montserrat-Regular';}
	.st2{font-size:34.269px;}
	.st3{fill:#B32025;}
</style>
<text transform="matrix(1 0 0 1 122.5681 61.0964)" class="st0 st1 st2">CORNELL UNIVERSITY LIBRARY</text>
<path class="st3" d="M39.5,79.1c5.9,4.6,11.7,7.1,11.9,7.2l0.4,0.2l0.4-0.2c0.2-0.1,6-2.6,11.9-7.2c7.9-6.2,12.1-13.2,12.1-20.3
	l0-32.6l-48.8,0l0,32C27.4,65.6,31.6,72.8,39.5,79.1z M50.7,69.1c-0.3-0.1-0.5-0.2-0.9-0.2h-0.1c-1.2,0-2.1,0.1-3,0.2
	c-0.9,0.1-1.9,0.2-3.3,0.2c-0.6,0-1.2,0-1.7,0V54H42c0.6,0,1.3,0,2.2,0c0.8,0,1.6-0.1,2.6-0.2c0.5-0.1,1.1-0.1,1.7-0.2
	c1-0.1,2,0.1,2,0.1c0.1,0,0.2,0.1,0.2,0.1L50.7,69.1L50.7,69.1z M73.9,58.8c0,13.3-16.4,22.4-21.2,24.8V71.4
	c0.1-0.1,0.2-0.2,0.2-0.3c0.2-0.3,0.4-0.4,0.9-0.5c1.1,0,2,0.1,2.9,0.2c0.9,0.1,1.9,0.2,3.4,0.2c1.5,0,2.6,0,2.6,0l0.8,0l0-4.5h1.9
	V64h-1.9l0-4.4h1.9v-2.4h-1.9l0-4.9l-0.8,0c-0.3,0-0.7,0-1.1,0c-0.6,0-1.3,0-2.2,0c-0.7,0-1.5-0.1-2.4-0.2c-0.5-0.1-1.1-0.1-1.7-0.2
	c-1.3-0.2-2.5,0.1-2.5,0.1c0,0,0,0-0.1,0v-4.7h21.2L73.9,58.8z M52.7,69.2V53.8c0.1-0.1,0.2-0.1,0.4-0.1c0,0,1-0.2,2-0.1
	c0.6,0.1,1.2,0.1,1.7,0.2c1,0.1,1.8,0.2,2.6,0.2c0.8,0,1.4,0,2,0h0.5l0,15.3c-0.4,0-1,0-1.7,0c-1.4,0-2.4-0.1-3.3-0.2
	c-1-0.1-1.8-0.2-3.1-0.2C53.4,68.9,53,69,52.7,69.2z M29.7,28.5l44.2,0l0,16.5H29.7L29.7,28.5z M29.7,47.3h21v4.6
	c-0.3-0.1-1.3-0.2-2.4-0.1c-0.6,0.1-1.2,0.1-1.8,0.2c-0.9,0.1-1.7,0.2-2.4,0.2c-0.9,0-1.6,0-2.2,0c-0.4,0-0.8,0-1.1,0l-0.8,0v4.5H38
	v2.4h2.1v4.5H38V66h2.1v5l0.8,0c0,0,1.2,0.1,2.6,0c1.5,0,2.5-0.1,3.4-0.2c0.9-0.1,1.8-0.2,2.9-0.2c0.4,0,0.6,0.1,0.8,0.4
	c0,0,0.1,0.1,0.1,0.1v12.2c-5.1-2.5-21-11.5-21-25.2L29.7,47.3z M48.2,30.1H35.8V31c0,2.7,0,7.3,0,7.5c0.1,0.9,0.7,1.8,1.9,2.6
	c1.5,1,3.7,2.3,3.8,2.4l0.4,0.2l0.4-0.2c0.1-0.1,2.5-1.4,4-2.4c1.8-1.2,1.8-2.2,1.8-2.6c0-0.2,0-4.2,0-7.5L48.2,30.1L48.2,30.1z
	 M37.6,31.9h8.9c0,0.7,0,1.5,0,2.2h-8.9C37.6,33.3,37.6,32.6,37.6,31.9z M46.4,38.4c0,0.4-0.6,0.9-1,1.2c-1.1,0.7-2.7,1.6-3.4,2.1
	c-0.7-0.4-2.2-1.3-3.3-2.1c-0.7-0.5-1.1-0.9-1.1-1.3c0-0.1,0-1.2,0-2.5h8.9C46.4,37.2,46.4,38.2,46.4,38.4z M69.2,29.8H56.6v0.9
	c0,3.4,0,7.5,0,7.7c0.1,0.9,0.7,1.8,1.9,2.6c1.5,1,3.8,2.4,3.9,2.4l0.4,0.2l0.4-0.2c0.1-0.1,2.6-1.4,4.1-2.4
	c1.8-1.2,1.8-2.3,1.8-2.6c0-0.2,0-4.3,0-7.7L69.2,29.8z M67.4,38.2c0,0.4-0.6,0.9-1.1,1.2c-1.1,0.7-2.8,1.7-3.5,2.1
	c-0.7-0.4-2.3-1.4-3.4-2.1c-0.3-0.2-1.1-0.8-1.2-1.3c0,0,0-0.2,0-0.5l4.4-3.2l4.8,3.2C67.4,38,67.4,38.2,67.4,38.2z M62.6,32.4
	l-4.3,3.1c0-1.2,0-2.7,0-4.1h9.2c0,1.4,0,2.9,0,4.2L62.6,32.4z M55,57.2l0.8,0.1c0.6,0.1,1,0.1,1.5,0.1l2.6,0.1l0-1.7l-2.5-0.1
	c-0.4,0-0.8-0.1-1.3-0.1l-0.8-0.1c-0.2,0-0.4,0-0.6,0l0.1,1.7C54.7,57.2,54.8,57.2,55,57.2z M57.3,60.5c-0.4,0-0.8-0.1-1.3-0.1
	c-0.3,0-0.6-0.1-0.9-0.1c-0.2,0-0.4,0-0.6,0l0,1.7c0.1,0,0.3,0,0.4,0c0.3,0,0.6,0.1,0.9,0.1c0.5,0.1,1,0.1,1.4,0.1
	c0.5,0,1.3,0,1.9,0l0.7,0l0-1.7l-0.7,0C58.6,60.5,57.8,60.5,57.3,60.5z M57.3,65.5c-0.4,0-0.8-0.1-1.3-0.1c-0.3,0-0.6-0.1-0.9-0.1
	c-0.2,0-0.4,0-0.6,0l0.1,1.7c0.1,0,0.3,0,0.4,0c0.3,0,0.6,0.1,0.9,0.1c0.5,0.1,1,0.1,1.4,0.1l0.7,0c0.7,0,1.6,0,1.8,0l0-1.7
	c-0.3,0-1.1,0-1.8,0L57.3,65.5z M46.4,57.4c0.4,0,0.9-0.1,1.5-0.1c0.3,0,0.5-0.1,0.8-0.1c0.1,0,0.3,0,0.4,0l0-1.7
	c-0.2,0-0.4,0-0.6,0c-0.3,0-0.6,0.1-0.9,0.1c-0.5,0.1-0.9,0.1-1.3,0.1l-2.6,0.1l0,1.7L46.4,57.4z M47.6,60.4
	c-0.5,0.1-0.9,0.1-1.3,0.1l-2.6,0.1l0,1.7l2.5-0.1c0.4,0,0.9-0.1,1.5-0.1l0.8-0.1c0.1,0,0.3,0,0.4,0l0.1-1.7c-0.2,0-0.4,0-0.6,0
	L47.6,60.4z M47.6,65.3c-0.5,0.1-0.9,0.1-1.4,0.1c-0.8,0-2.1,0.1-2.5,0.1l0,1.7c0.4,0,1.7,0,2.6-0.1c0.4,0,0.9-0.1,1.5-0.1l0.8-0.1
	c0.1,0,0.3,0,0.4,0l0-1.7c-0.2,0-0.4,0-0.6,0L47.6,65.3z M7.8,51.9c2.2,0,3.5-1.4,3.7-3.8c0-0.5,0-1-0.1-1.6l0-0.2l-1.8,0l0.2,0.4
	c0.1,0.3,0.2,0.9,0.2,1.4c-0.1,1.3-1,2-2.4,1.9c-1.4-0.1-2.2-1-2.1-2.2c0-0.4,0.1-0.8,0.4-1.3L6,46.1l-1.8-0.3L4.2,46
	c-0.2,0.5-0.4,1.1-0.4,1.6c-0.2,2.5,1.2,4.1,3.7,4.3C7.6,51.9,7.7,51.9,7.8,51.9z M8.1,43.4c0.5,0.1,0.9,0.2,1.4,0.2
	c1.6,0,2.9-1,3.3-2.6c0.3-1,0.2-1.9-0.2-2.7c-0.5-0.9-1.3-1.5-2.5-1.8c-0.5-0.1-0.9-0.2-1.3-0.2c-1.7,0-2.9,1-3.4,2.6
	C4.8,41,5.8,42.7,8.1,43.4z M7,39.3c0.3-0.9,1.1-1.1,1.7-1.1c0.3,0,0.6,0,0.9,0.1c0.8,0.2,1.4,0.6,1.6,1.1c0.2,0.3,0.2,0.7,0.1,1.1
	c-0.3,0.9-1,1.1-1.7,1.1c-0.3,0-0.6-0.1-1-0.1C7.7,41.2,6.6,40.5,7,39.3z M15.6,33.7L13,32.3l0.1-0.2c0.2-0.5,0.4-0.4,0.8-0.4
	l2.5,0.3l1-1.9l-3.3-0.3c-0.2,0-0.5,0-0.6,0c0-0.7-0.3-1.4-1-1.7c-0.4-0.2-0.7-0.3-1.1-0.3c-1.2,0-1.9,1.2-2.4,2.3l-0.9,1.6l6.6,3.5
	L15.6,33.7z M11.7,31.4l-0.1,0.2l-1.2-0.6l0.1-0.2c0.3-0.6,0.6-1,1.1-0.8c0.2,0.1,0.3,0.2,0.3,0.4C12,30.6,11.8,31.1,11.7,31.4z
	 M19.7,27.1l-3.4-2.8l4.8,1.1l1.3-1.6L16.7,19l-1.2,1.4l3.4,2.8l-4.8-1.1l-1.4,1.6l5.8,4.8L19.7,27.1z M28,19l-1-1.3l-2.1,1.7
	L24,18.4l1.9-1.5l-1-1.3L23,17.1l-0.8-0.9l2.1-1.7l-1-1.3l-3.5,2.9l4.7,5.8L28,19z M34.3,15.3l-0.8-1.4l-2.3,1.3l-2.9-5.1L26.6,11
	l3.7,6.5L34.3,15.3z M40.6,12.9L40,11.4l-2.5,0.9l-2-5.5l-1.8,0.6l2.5,7L40.6,12.9z M48.1,11.7c0.2,0,0.3,0,0.5,0
	c1-0.1,1.8-0.4,2.3-1c0.4-0.5,0.6-1.3,0.6-2.2L51,3.8L49.1,4l0.4,4.3c0.1,1.5-0.5,1.8-1,1.8c0,0-0.1,0-0.1,0c-0.4,0-1.1-0.2-1.2-1.6
	l-0.3-4.3l-1.9,0.2L45.3,9C45.4,10.8,46.4,11.7,48.1,11.7z M56.7,7.2l1.6,4.7l2.1,0.3l1-7.4l-1.8-0.2L59,8.9l-1.6-4.7l-2.1-0.3
	l-1,7.4l1.8,0.2L56.7,7.2z M67,6.4l-1.8-0.6l-2.2,7.2l1.8,0.6L67,6.4z M76.4,10.6l-1.7-0.9l-3.6,3.7l0.8-5.1l-1.8-0.9l-1.1,7.8
	l1.8,0.9L76.4,10.6z M78.3,21.3l1-1.3l-2.1-1.7l0.9-1.1l1.9,1.5l1-1.3L79,15.9l0.7-0.9l2.1,1.6l1-1.3l-3.6-2.8l-4.6,5.9L78.3,21.3z
	 M81.4,24.4l2.2-1.9l0.1,0.1c0.3,0.3,0.3,0.5,0.1,0.9l-1.2,2.2l1.4,1.6l1.5-3c0.1-0.1,0.2-0.3,0.2-0.6c0.6,0.3,1.4,0.2,2-0.3
	c1.6-1.4,0.3-2.9-0.6-4L85.7,18L80.1,23L81.4,24.4z M85.8,20.5l0.1,0.1c0.3,0.3,0.5,0.7,0.5,0.9c0,0.1-0.1,0.3-0.2,0.4
	c-0.1,0.1-0.3,0.2-0.4,0.2c-0.3,0-0.7-0.3-0.9-0.6l-0.1-0.1L85.8,20.5z M88.3,30.4c-0.4,0.2-0.8-0.1-1-0.5c-0.2-0.4-0.4-0.9-0.4-1.4
	l0-0.4l-1.7,0.8l0.1,0.4c0.2,0.6,0.3,0.9,0.6,1.5c0.6,1,1.4,1.6,2.3,1.6c0.4,0,0.8-0.1,1.2-0.4c1.3-0.8,1.1-2,1-2.9
	c-0.1-0.6-0.2-1,0.1-1.2c0.1-0.1,0.3-0.1,0.4-0.1c0.3,0,0.6,0.3,0.7,0.5c0.2,0.4,0.4,0.8,0.4,1.3l0,0.3l1.6-0.7l0-0.2
	c-0.1-0.5-0.3-1.1-0.7-1.6c-0.8-1.4-2.2-1.8-3.4-1.1c-1.3,0.8-1.1,2-1,2.9C88.6,29.8,88.7,30.2,88.3,30.4z M89.2,37.2l6.9-2.8
	l-0.7-1.8l-6.9,2.8L89.2,37.2z M96.2,39.7l-5.7,1.4l0.5,1.8l5.7-1.4l0.5,1.9l1.6-0.4l-1.4-5.7l-1.6,0.4L96.2,39.7z M91.8,48.7
	l0.1,1.9l2.9-0.2l4.7,2.4l-0.1-2.1l-2.7-1.4l2.6-1.6l-0.1-2.2l-4.4,3L91.8,48.7z M9.3,65.9l1.6-0.5l-0.7-2.3l1.1-0.3l0.7,2.4
	l1.6-0.5l-1.2-4.2l-7.2,2.1l0.5,1.8l2.9-0.9L9.3,65.9z M16,72.1c0.3-0.9,0.2-1.8-0.3-2.8c-0.7-1.4-1.8-2.1-3.1-2.1
	c-0.6,0-1.3,0.2-2,0.5c-1.1,0.5-1.8,1.3-2.1,2.2c-0.3,0.9-0.2,1.8,0.3,2.8c0.7,1.3,1.8,2.1,3.1,2.1c0.6,0,1.3-0.2,2-0.5
	C14.9,73.8,15.6,73,16,72.1z M13,72.5c-0.5,0.2-0.9,0.4-1.4,0.4c-0.7,0-1.1-0.3-1.4-0.9c-0.2-0.4-0.2-0.8-0.1-1.2
	c0.2-0.5,0.7-1,1.4-1.4c0.4-0.2,0.9-0.3,1.3-0.3c0.7,0,1.1,0.3,1.4,0.9c0.2,0.4,0.2,0.8,0.1,1.2C14.1,71.7,13.7,72.2,13,72.5z
	 M21.1,77.9l-3.4,2.7c-0.9,0.7-1.6,0.8-2.1,0.1c-0.2-0.3-0.3-0.5-0.3-0.8c0-0.4,0.3-0.8,0.9-1.2l3.4-2.7l-1.2-1.5l-3.7,2.9
	c-0.8,0.6-1.2,1.3-1.2,2c0,0.7,0.3,1.4,0.9,2.2c0.7,0.9,1.5,1.4,2.3,1.4c0.6,0,1.2-0.3,1.9-0.8l3.7-2.9L21.1,77.9z M27.5,84
	l-2.8,3.4l1.1-4.8l-1.7-1.3L19.3,87l1.4,1.2l2.8-3.4l-1.1,4.9l1.6,1.3l4.7-5.8L27.5,84z M33,87.5l-1.9-1l-3.4,6.7l1.9,1
	c0.9,0.5,1.7,0.7,2.5,0.7c1.3,0,2.3-0.7,3-2.1C36.3,90.6,35.6,88.8,33,87.5z M33.4,91.9c-0.4,0.8-1.1,1.2-1.8,1.2
	c-0.3,0-0.6-0.1-0.9-0.2l-0.5-0.2l1.9-3.8l0.5,0.2c0.5,0.2,0.9,0.7,1,1.2C33.7,90.8,33.7,91.4,33.4,91.9z M37.2,97.4l4.5,1.2
	l0.4-1.6l-2.6-0.7l0.4-1.4l2.4,0.6l0.4-1.6l-2.4-0.6l0.3-1.2l2.6,0.7l0.4-1.6l-4.5-1.2L37.2,97.4z M48.2,91.9L46,91.8l-0.4,7.5
	l2.2,0.1c0.2,0,0.3,0,0.5,0c2.5,0,3.9-1.2,4-3.5c0.1-1.2-0.2-2.1-0.8-2.7C50.8,92.4,49.7,92,48.2,91.9z M48.1,97.8l-0.5,0l0.2-4.2
	l0.5,0c1,0.1,2,0.8,1.9,2.2C50.2,97.3,49.1,97.9,48.1,97.8z M58.9,91.4l-1.3,7.9l2-0.4l0.3-1.7l2.4-0.5l0.9,1.4l2.1-0.4L60.7,91
	L58.9,91.4z M60,95.5l0.2-2l1,1.7L60,95.5z M66,95.3l0.6,1.8l1.8-0.6l-0.7-1.8L66,95.3z M69.6,87.7l-1.9,1l3.6,6.6l1.9-1
	c2.5-1.3,3.2-3.1,2-5.3C74,86.8,72.1,86.3,69.6,87.7z M72.7,92.7l-0.5,0.2l-2-3.7l0.5-0.2c0.3-0.2,0.6-0.3,1-0.3
	c0.8,0,1.4,0.4,1.8,1.2C74.1,91.1,73.5,92.2,72.7,92.7z M76.6,90l1.1,1.6l1.6-1.1l-1.1-1.6L76.6,90z M79.6,80.4l-0.3,2.9l1.6,0.2
	l0.1-1.2l3.6,3.6l1.4-1.3l-5.3-5.3L79.6,80.4z M89.7,76.5c-0.6-0.5-1.3-0.5-2.1-0.2c0-0.7-0.4-1.4-0.8-1.7c-0.9-0.7-2.2-0.3-3.1,0.9
	c-0.9,1.2-0.8,2.5,0.2,3.2c0.5,0.4,1.2,0.5,1.8,0.2c0,0.8,0.2,1.4,0.8,1.9c0.4,0.3,0.9,0.5,1.3,0.5c0.8,0,1.5-0.5,2.1-1.3
	c0.5-0.7,0.8-1.4,0.7-2.1C90.6,77.4,90.3,76.9,89.7,76.5z M86.2,77.1c-0.3,0.2-0.5,0.3-0.8,0.3c-0.1,0-0.2,0-0.3-0.1
	c-0.4-0.3-0.2-0.7,0-1c0.1-0.2,0.3-0.3,0.5-0.3c0.1,0,0.3,0,0.4,0.1C86.1,76.4,86.2,76.8,86.2,77.1z M88.7,79.1
	c-0.3,0.3-0.7,0.4-1.1,0.2c-0.3-0.2-0.4-0.5-0.3-1c0.5-0.4,0.9-0.4,1.3-0.2c0.2,0.1,0.2,0.3,0.3,0.4C88.9,78.7,88.9,78.9,88.7,79.1z
	 M93.1,69.2c-1.3-0.6-2.5-0.3-3.2,1c-0.2,0.4-0.2,0.7-0.2,1c-0.5-0.4-0.9-1-0.5-1.7c0.2-0.4,0.4-0.6,0.7-0.9l0.3-0.2l-1.4-1
	l-0.2,0.2c-0.4,0.4-0.7,0.8-0.9,1.3c-0.4,0.7-0.4,1.5-0.2,2.2c0.4,1.2,1.6,2,2.6,2.5c0.8,0.4,1.5,0.6,2.2,0.6c1,0,1.7-0.5,2.1-1.4
	C95.2,71.3,94.7,70,93.1,69.2z M93.1,72c-0.1,0.2-0.3,0.4-0.6,0.4c-0.2,0-0.4-0.1-0.6-0.2c-0.4-0.2-0.6-0.4-0.7-0.6
	c0-0.1,0-0.3,0-0.4c0.1-0.2,0.3-0.3,0.6-0.3c0.2,0,0.4,0.1,0.7,0.2c0.3,0.2,0.6,0.4,0.6,0.6C93.1,71.8,93.1,71.9,93.1,72z
	 M95.8,61.6c-1.5-0.4-2.7,0.2-3.1,1.7c0,0.1-0.1,0.3-0.1,0.4l-0.9-0.3l0.8-2.6L91,60.4l-1.3,4.3l4.2,1.3l0-0.4
	c0-0.4,0.1-0.8,0.2-1.2c0.1-0.4,0.5-1.2,1.3-1c0.9,0.3,0.7,1.2,0.6,1.5c-0.2,0.5-0.4,0.9-0.7,1.2l-0.2,0.3l1.7,0.6l0.1-0.2
	c0.3-0.5,0.5-1.1,0.7-1.6c0.3-0.9,0.2-1.7-0.1-2.3C97,62.3,96.5,61.8,95.8,61.6z M13.9,51.6c0,20.8,16.9,37.8,37.7,37.8
	c20.8,0,37.7-16.9,37.7-37.8c0-20.8-16.9-37.7-37.7-37.7C30.8,13.9,13.9,30.8,13.9,51.6z M51.6,15.2c20.1,0,36.4,16.4,36.4,36.4
	c0,20.1-16.4,36.4-36.4,36.4c-20.1,0-36.4-16.3-36.4-36.4C15.2,31.5,31.5,15.2,51.6,15.2z M51.6,0C23.2,0,0,23.2,0,51.6
	c0,28.5,23.2,51.6,51.6,51.6c28.5,0,51.6-23.2,51.6-51.6C103.3,23.2,80.1,0,51.6,0z M51.6,101.9c-27.7,0-50.3-22.6-50.3-50.3
	c0-27.7,22.6-50.3,50.3-50.3c27.7,0,50.3,22.6,50.3,50.3C101.9,79.4,79.4,101.9,51.6,101.9z"/>
</svg>
