<?xml version="1.0" encoding="utf-8"?>
<!-- Generator: Adobe Illustrator 22.1.0, SVG Export Plug-In . SVG Version: 6.00 Build 0)  -->
<svg version="1.1" id="Layer_1" xmlns="http://www.w3.org/2000/svg" xmlns:xlink="http://www.w3.org/1999/xlink" x="0px" y="0px"
	 viewBox="0 0 685.3 120" style="enable-background:new 0 0 685.3 120;" xml:space="preserve">
<style type="text/css">
	.st0{fill:#222222;}
	.st1{fill:#B32025;}
</style>
<g>
	<path class="st0" d="M135.6,58.6c0-7,5.3-12.2,12.6-12.2c3.5,0,6.6,1.2,8.8,3.5l-1.6,1.6c-2-2-4.4-2.8-7.1-2.8
		c-5.8,0-10.1,4.2-10.1,9.9c0,5.7,4.4,9.9,10.1,9.9c2.7,0,5.1-0.9,7.1-2.9l1.6,1.6c-2.1,2.3-5.3,3.5-8.8,3.5
		C140.9,70.9,135.6,65.7,135.6,58.6z"/>
	<path class="st0" d="M159.7,58.6c0-7,5.3-12.2,12.6-12.2c7.2,0,12.6,5.2,12.6,12.2c0,7-5.4,12.2-12.6,12.2
		C165,70.9,159.7,65.6,159.7,58.6z M182.3,58.6c0-5.7-4.3-9.9-10-9.9c-5.8,0-10.1,4.2-10.1,9.9c0,5.7,4.3,9.9,10.1,9.9
		C178,68.6,182.3,64.4,182.3,58.6z"/>
	<path class="st0" d="M206.9,70.6l-5.5-7.7c-0.6,0.1-1.2,0.1-1.9,0.1h-6.4v7.6h-2.5v-24h9c6.1,0,9.8,3.1,9.8,8.2
		c0,3.8-2,6.4-5.5,7.5l5.9,8.2H206.9z M206.8,54.9c0-3.8-2.5-6-7.3-6h-6.4v12h6.4C204.3,60.9,206.8,58.6,206.8,54.9z"/>
	<path class="st0" d="M235.4,46.7v24h-2.1l-15.4-19.5v19.5h-2.5v-24h2.1l15.5,19.5V46.7H235.4z"/>
	<path class="st0" d="M260.2,68.5v2.2h-17v-24h16.5v2.2h-13.9v8.5h12.4v2.2h-12.4v8.9H260.2z"/>
	<path class="st0" d="M266.1,46.7h2.5v21.8h13.4v2.2h-16V46.7z"/>
	<path class="st0" d="M286.3,46.7h2.5v21.8h13.4v2.2h-16V46.7z"/>
	<path class="st0" d="M315.3,60.4V46.7h2.5v13.6c0,5.7,2.7,8.3,7.3,8.3c4.7,0,7.4-2.6,7.4-8.3V46.7h2.5v13.7
		c0,6.9-3.7,10.5-9.8,10.5C319,70.9,315.3,67.3,315.3,60.4z"/>
	<path class="st0" d="M362.7,46.7v24h-2.1l-15.4-19.5v19.5h-2.5v-24h2.1l15.5,19.5V46.7H362.7z"/>
	<path class="st0" d="M370.5,46.7h2.5v24h-2.5V46.7z"/>
	<path class="st0" d="M400.5,46.7l-10.6,24h-2.5l-10.6-24h2.7l9.2,20.8l9.3-20.8H400.5z"/>
	<path class="st0" d="M420.9,68.5v2.2h-17v-24h16.5v2.2h-13.9v8.5h12.4v2.2h-12.4v8.9H420.9z"/>
	<path class="st0" d="M443.3,70.6l-5.5-7.7c-0.6,0.1-1.2,0.1-1.9,0.1h-6.4v7.6h-2.5v-24h9c6.1,0,9.8,3.1,9.8,8.2
		c0,3.8-2,6.4-5.5,7.5l5.9,8.2H443.3z M443.1,54.9c0-3.8-2.5-6-7.3-6h-6.4v12h6.4C440.6,60.9,443.1,58.6,443.1,54.9z"/>
	<path class="st0" d="M449.4,67.7l1-2c1.7,1.7,4.8,2.9,7.9,2.9c4.5,0,6.4-1.9,6.4-4.2c0-6.6-14.8-2.5-14.8-11.4
		c0-3.5,2.7-6.6,8.8-6.6c2.7,0,5.5,0.8,7.4,2.1l-0.9,2c-2.1-1.3-4.5-2-6.6-2c-4.4,0-6.3,2-6.3,4.4c0,6.6,14.8,2.6,14.8,11.3
		c0,3.5-2.8,6.5-8.9,6.5C454.7,70.9,451.1,69.6,449.4,67.7z"/>
	<path class="st0" d="M472.7,46.7h2.5v24h-2.5V46.7z"/>
	<path class="st0" d="M487.7,48.8h-8.4v-2.2h19.4v2.2h-8.4v21.8h-2.5V48.8z"/>
	<path class="st0" d="M510.8,62.4v8.3h-2.5v-8.3l-9.6-15.7h2.7l8.2,13.5l8.2-13.5h2.5L510.8,62.4z"/>
	<path class="st0" d="M533.3,46.7h2.5v21.8h13.4v2.2h-16V46.7z"/>
	<path class="st0" d="M553.5,46.7h2.5v24h-2.5V46.7z"/>
	<path class="st0" d="M583.9,64.2c0,4.1-3,6.4-9,6.4h-11v-24h10.3c5.3,0,8.4,2.3,8.4,6.2c0,2.7-1.5,4.6-3.7,5.4
		C582,59,583.9,61,583.9,64.2z M566.4,48.7v8.7h7.6c3.8,0,6.1-1.5,6.1-4.4s-2.2-4.4-6.1-4.4H566.4z M581.4,64c0-3.1-2.3-4.5-6.5-4.5
		h-8.5v9h8.5C579.1,68.6,581.4,67.2,581.4,64z"/>
	<path class="st0" d="M606.1,70.6l-5.5-7.7c-0.6,0.1-1.2,0.1-1.9,0.1h-6.4v7.6h-2.5v-24h9c6.1,0,9.8,3.1,9.8,8.2
		c0,3.8-2,6.4-5.5,7.5l5.9,8.2H606.1z M605.9,54.9c0-3.8-2.5-6-7.3-6h-6.4v12h6.4C603.4,60.9,605.9,58.6,605.9,54.9z"/>
	<path class="st0" d="M629.5,64.2h-13.4l-2.9,6.4h-2.6l11-24h2.5l11,24h-2.7L629.5,64.2z M628.6,62.2l-5.8-12.9l-5.8,12.9H628.6z"/>
	<path class="st0" d="M655.4,70.6l-5.5-7.7c-0.6,0.1-1.2,0.1-1.9,0.1h-6.4v7.6H639v-24h9c6.1,0,9.8,3.1,9.8,8.2c0,3.8-2,6.4-5.5,7.5
		l5.9,8.2H655.4z M655.3,54.9c0-3.8-2.5-6-7.3-6h-6.4v12h6.4C652.7,60.9,655.3,58.6,655.3,54.9z"/>
	<path class="st0" d="M671.7,62.4v8.3h-2.5v-8.3l-9.6-15.7h2.7l8.2,13.5l8.2-13.5h2.5L671.7,62.4z"/>
</g>
<path class="st1" d="M50.7,88.6c5.9,4.6,11.7,7.1,11.9,7.2l0.4,0.2l0.4-0.2c0.2-0.1,6-2.6,11.9-7.2c7.9-6.2,12.1-13.2,12.1-20.3
	l0-32.6l-48.8,0l0,32C38.6,75.2,42.8,82.4,50.7,88.6z M61.9,78.6c-0.3-0.1-0.5-0.2-0.9-0.2H61c-1.2,0-2.1,0.1-3,0.2
	c-0.9,0.1-1.9,0.2-3.3,0.2c-0.6,0-1.2,0-1.7,0V63.5h0.2c0.6,0,1.3,0,2.2,0c0.8,0,1.6-0.1,2.6-0.2c0.5-0.1,1.1-0.1,1.7-0.2
	c1-0.1,2,0.1,2,0.1c0.1,0,0.2,0.1,0.2,0.1L61.9,78.6L61.9,78.6z M85.1,68.3c0,13.3-16.4,22.4-21.2,24.8V80.9
	c0.1-0.1,0.2-0.2,0.2-0.3c0.2-0.3,0.4-0.4,0.9-0.5c1.1,0,2,0.1,2.9,0.2c0.9,0.1,1.9,0.2,3.4,0.2c1.5,0,2.6,0,2.6,0l0.8,0l0-4.5h1.9
	v-2.4h-1.9l0-4.4h1.9v-2.4h-1.9l0-4.9l-0.8,0c-0.3,0-0.7,0-1.1,0c-0.6,0-1.3,0-2.2,0c-0.7,0-1.5-0.1-2.4-0.2
	c-0.5-0.1-1.1-0.1-1.7-0.2c-1.3-0.2-2.5,0.1-2.5,0.1c0,0,0,0-0.1,0v-4.7h21.2L85.1,68.3z M63.9,78.7V63.3c0.1-0.1,0.2-0.1,0.4-0.1
	c0,0,1-0.2,2-0.1c0.6,0.1,1.2,0.1,1.7,0.2c1,0.1,1.8,0.2,2.6,0.2c0.8,0,1.4,0,2,0h0.5l0,15.3c-0.4,0-1,0-1.7,0
	c-1.4,0-2.4-0.1-3.3-0.2c-1-0.1-1.8-0.2-3.1-0.2C64.6,78.5,64.2,78.6,63.9,78.7z M40.9,38l44.2,0l0,16.5H40.9L40.9,38z M40.9,56.9
	h21v4.6c-0.3-0.1-1.3-0.2-2.4-0.1c-0.6,0.1-1.2,0.1-1.8,0.2c-0.9,0.1-1.7,0.2-2.4,0.2c-0.9,0-1.6,0-2.2,0c-0.4,0-0.8,0-1.1,0l-0.8,0
	v4.5h-2.1v2.4h2.1v4.5h-2.1v2.4h2.1v5l0.8,0c0,0,1.2,0.1,2.6,0c1.5,0,2.5-0.1,3.4-0.2c0.9-0.1,1.8-0.2,2.9-0.2
	c0.4,0,0.6,0.1,0.8,0.4c0,0,0.1,0.1,0.1,0.1V93c-5.1-2.5-21-11.5-21-25.2L40.9,56.9z M59.4,39.7H47v0.9c0,2.7,0,7.3,0,7.5
	c0.1,0.9,0.7,1.8,1.9,2.6c1.5,1,3.7,2.3,3.8,2.4l0.4,0.2l0.4-0.2c0.1-0.1,2.5-1.4,4-2.4c1.8-1.2,1.8-2.2,1.8-2.6c0-0.2,0-4.2,0-7.5
	L59.4,39.7L59.4,39.7z M48.8,41.4h8.9c0,0.7,0,1.5,0,2.2h-8.9C48.8,42.9,48.8,42.1,48.8,41.4z M57.6,47.9c0,0.4-0.6,0.9-1,1.2
	c-1.1,0.7-2.7,1.6-3.4,2.1c-0.7-0.4-2.2-1.3-3.3-2.1c-0.7-0.5-1.1-0.9-1.1-1.3c0-0.1,0-1.2,0-2.5h8.9C57.6,46.7,57.6,47.8,57.6,47.9
	z M80.4,39.3H67.8v0.9c0,3.4,0,7.5,0,7.7c0.1,0.9,0.7,1.8,1.9,2.6c1.5,1,3.8,2.4,3.9,2.4l0.4,0.2l0.4-0.2c0.1-0.1,2.6-1.4,4.1-2.4
	c1.8-1.2,1.8-2.3,1.8-2.6c0-0.2,0-4.3,0-7.7L80.4,39.3z M78.6,47.8c0,0.4-0.6,0.9-1.1,1.2c-1.1,0.7-2.8,1.7-3.5,2.1
	c-0.7-0.4-2.3-1.4-3.4-2.1c-0.3-0.2-1.1-0.8-1.2-1.3c0,0,0-0.2,0-0.5l4.4-3.2l4.8,3.2C78.6,47.5,78.6,47.7,78.6,47.8z M73.8,42
	l-4.3,3.1c0-1.2,0-2.7,0-4.1h9.2c0,1.4,0,2.9,0,4.2L73.8,42z M66.2,66.8l0.8,0.1c0.6,0.1,1,0.1,1.5,0.1l2.6,0.1l0-1.7l-2.5-0.1
	c-0.4,0-0.8-0.1-1.3-0.1l-0.8-0.1c-0.2,0-0.4,0-0.6,0l0.1,1.7C65.9,66.8,66,66.8,66.2,66.8z M68.5,70.1c-0.4,0-0.8-0.1-1.3-0.1
	c-0.3,0-0.6-0.1-0.9-0.1c-0.2,0-0.4,0-0.6,0l0,1.7c0.1,0,0.3,0,0.4,0c0.3,0,0.6,0.1,0.9,0.1c0.5,0.1,1,0.1,1.4,0.1
	c0.5,0,1.3,0,1.9,0l0.7,0l0-1.7l-0.7,0C69.8,70.1,69.1,70.1,68.5,70.1z M68.5,75c-0.4,0-0.8-0.1-1.3-0.1c-0.3,0-0.6-0.1-0.9-0.1
	c-0.2,0-0.4,0-0.6,0l0.1,1.7c0.1,0,0.3,0,0.4,0c0.3,0,0.6,0.1,0.9,0.1c0.5,0.1,1,0.1,1.4,0.1l0.7,0c0.7,0,1.6,0,1.8,0l0-1.7
	c-0.3,0-1.1,0-1.8,0L68.5,75z M57.6,67c0.4,0,0.9-0.1,1.5-0.1c0.3,0,0.5-0.1,0.8-0.1c0.1,0,0.3,0,0.4,0l0-1.7c-0.2,0-0.4,0-0.6,0
	c-0.3,0-0.6,0.1-0.9,0.1c-0.5,0.1-0.9,0.1-1.3,0.1L55,65.3l0,1.7L57.6,67z M58.8,69.9C58.3,70,57.9,70,57.5,70L55,70.1l0,1.7
	l2.5-0.1c0.4,0,0.9-0.1,1.5-0.1l0.8-0.1c0.1,0,0.3,0,0.4,0l0.1-1.7c-0.2,0-0.4,0-0.6,0L58.8,69.9z M58.8,74.9
	c-0.5,0.1-0.9,0.1-1.4,0.1C56.6,75,55.3,75,55,75l0,1.7c0.4,0,1.7,0,2.6-0.1c0.4,0,0.9-0.1,1.5-0.1l0.8-0.1c0.1,0,0.3,0,0.4,0l0-1.7
	c-0.2,0-0.4,0-0.6,0L58.8,74.9z M19,61.5c2.2,0,3.5-1.4,3.7-3.8c0-0.5,0-1-0.1-1.6l0-0.2l-1.8,0l0.2,0.4c0.1,0.3,0.2,0.9,0.2,1.4
	c-0.1,1.3-1,2-2.4,1.9c-1.4-0.1-2.2-1-2.1-2.2c0-0.4,0.1-0.8,0.4-1.3l0.2-0.3l-1.8-0.3l-0.1,0.2C15.2,56,15,56.6,15,57.2
	c-0.2,2.5,1.2,4.1,3.7,4.3C18.8,61.4,18.9,61.5,19,61.5z M19.3,52.9c0.5,0.1,0.9,0.2,1.4,0.2c1.6,0,2.9-1,3.3-2.6
	c0.3-1,0.2-1.9-0.2-2.7c-0.5-0.9-1.3-1.5-2.5-1.8c-0.5-0.1-0.9-0.2-1.3-0.2c-1.7,0-2.9,1-3.4,2.6C16,50.6,17,52.3,19.3,52.9z
	 M18.2,48.8c0.3-0.9,1.1-1.1,1.7-1.1c0.3,0,0.6,0,0.9,0.1c0.8,0.2,1.4,0.6,1.6,1.1c0.2,0.3,0.2,0.7,0.1,1.1c-0.3,0.9-1,1.1-1.7,1.1
	c-0.3,0-0.6-0.1-1-0.1C18.9,50.8,17.8,50,18.2,48.8z M26.8,43.2l-2.6-1.4l0.1-0.2c0.2-0.5,0.4-0.4,0.8-0.4l2.5,0.3l1-1.9l-3.3-0.3
	c-0.2,0-0.5,0-0.6,0c0-0.7-0.3-1.4-1-1.7c-0.4-0.2-0.7-0.3-1.1-0.3c-1.2,0-1.9,1.2-2.4,2.3l-0.9,1.6l6.6,3.5L26.8,43.2z M22.9,40.9
	l-0.1,0.2l-1.2-0.6l0.1-0.2c0.3-0.6,0.6-1,1.1-0.8c0.2,0.1,0.3,0.2,0.3,0.4C23.3,40.2,23,40.6,22.9,40.9z M30.9,36.7l-3.4-2.8
	l4.8,1.1l1.3-1.6l-5.8-4.8L26.7,30l3.4,2.8l-4.8-1.1L24,33.3l5.8,4.8L30.9,36.7z M39.2,28.6l-1-1.3L36.1,29l-0.9-1.1l1.9-1.5l-1-1.3
	l-1.9,1.5l-0.8-0.9l2.1-1.7l-1-1.3L31,25.7l4.7,5.8L39.2,28.6z M45.5,24.9l-0.8-1.4l-2.3,1.3l-2.9-5.1l-1.7,0.9l3.7,6.5L45.5,24.9z
	 M51.8,22.5L51.2,21l-2.5,0.9l-2-5.5L44.9,17l2.5,7L51.8,22.5z M59.3,21.2c0.2,0,0.3,0,0.5,0c1-0.1,1.8-0.4,2.3-1
	c0.4-0.5,0.6-1.3,0.6-2.2l-0.4-4.7l-1.9,0.2l0.4,4.3c0.1,1.5-0.5,1.8-1,1.8c0,0-0.1,0-0.1,0c-0.4,0-1.1-0.2-1.2-1.6L58,13.7
	l-1.9,0.2l0.4,4.7C56.6,20.3,57.6,21.2,59.3,21.2z M67.9,16.8l1.6,4.7l2.1,0.3l1-7.4l-1.8-0.2l-0.6,4.4l-1.6-4.7l-2.1-0.3l-1,7.4
	l1.8,0.2L67.9,16.8z M78.2,15.9l-1.8-0.6l-2.2,7.2L76,23L78.2,15.9z M87.6,20.1l-1.7-0.9l-3.6,3.7l0.8-5.1l-1.8-0.9l-1.1,7.8
	l1.8,0.9L87.6,20.1z M89.5,30.8l1-1.3l-2.1-1.7l0.9-1.1l1.9,1.5l1-1.3l-1.9-1.5l0.7-0.9l2.1,1.6l1-1.3l-3.6-2.8L85.8,28L89.5,30.8z
	 M92.6,34l2.2-1.9l0.1,0.1c0.3,0.3,0.3,0.5,0.1,0.9l-1.2,2.2l1.4,1.6l1.5-3c0.1-0.1,0.2-0.3,0.2-0.6c0.6,0.3,1.4,0.2,2-0.3
	c1.6-1.4,0.3-2.9-0.6-4l-1.2-1.4l-5.6,4.9L92.6,34z M97,30.1l0.1,0.1c0.3,0.3,0.5,0.7,0.5,0.9c0,0.1-0.1,0.3-0.2,0.4
	c-0.1,0.1-0.3,0.2-0.4,0.2c-0.3,0-0.7-0.3-0.9-0.6L96,31L97,30.1z M99.5,40c-0.4,0.2-0.8-0.1-1-0.5c-0.2-0.4-0.4-0.9-0.4-1.4l0-0.4
	l-1.7,0.8l0.1,0.4c0.2,0.6,0.3,0.9,0.6,1.5c0.6,1,1.4,1.6,2.3,1.6c0.4,0,0.8-0.1,1.2-0.4c1.3-0.8,1.1-2,1-2.9
	c-0.1-0.6-0.2-1,0.1-1.2c0.1-0.1,0.3-0.1,0.4-0.1c0.3,0,0.6,0.3,0.7,0.5c0.2,0.4,0.4,0.8,0.4,1.3l0,0.3l1.6-0.7l0-0.2
	c-0.1-0.5-0.3-1.1-0.7-1.6c-0.8-1.4-2.2-1.8-3.4-1.1c-1.3,0.8-1.1,2-1,2.9C99.8,39.4,99.9,39.8,99.5,40z M100.4,46.7l6.9-2.8
	l-0.7-1.8L99.7,45L100.4,46.7z M107.4,49.2l-5.7,1.4l0.5,1.8l5.7-1.4l0.5,1.9l1.6-0.4l-1.4-5.7l-1.6,0.4L107.4,49.2z M103,58.3
	l0.1,1.9L106,60l4.7,2.4l-0.1-2.1l-2.7-1.4l2.6-1.6l-0.1-2.2l-4.4,3L103,58.3z M20.5,75.4L22,75l-0.7-2.3l1.1-0.3l0.7,2.4l1.6-0.5
	l-1.2-4.2l-7.2,2.1l0.5,1.8l2.9-0.9L20.5,75.4z M27.2,81.6c0.3-0.9,0.2-1.8-0.3-2.8c-0.7-1.4-1.8-2.1-3.1-2.1c-0.6,0-1.3,0.2-2,0.5
	c-1.1,0.5-1.8,1.3-2.1,2.2c-0.3,0.9-0.2,1.8,0.3,2.8c0.7,1.3,1.8,2.1,3.1,2.1c0.6,0,1.3-0.2,2-0.5C26.1,83.3,26.8,82.6,27.2,81.6z
	 M24.2,82.1c-0.5,0.2-0.9,0.4-1.4,0.4c-0.7,0-1.1-0.3-1.4-0.9c-0.2-0.4-0.2-0.8-0.1-1.2c0.2-0.5,0.7-1,1.4-1.4
	c0.4-0.2,0.9-0.3,1.3-0.3c0.7,0,1.1,0.3,1.4,0.9c0.2,0.4,0.2,0.8,0.1,1.2C25.3,81.2,24.9,81.7,24.2,82.1z M32.3,87.4L29,90.1
	c-0.9,0.7-1.6,0.8-2.1,0.1c-0.2-0.3-0.3-0.5-0.3-0.8c0-0.4,0.3-0.8,0.9-1.2l3.4-2.7l-1.2-1.5L26,87c-0.8,0.6-1.2,1.3-1.2,2
	c0,0.7,0.3,1.4,0.9,2.2c0.7,0.9,1.5,1.4,2.3,1.4c0.6,0,1.2-0.3,1.9-0.8l3.7-2.9L32.3,87.4z M38.7,93.5l-2.8,3.4l1.1-4.8l-1.7-1.3
	l-4.7,5.8l1.4,1.2l2.8-3.4l-1.1,4.9l1.6,1.3l4.7-5.8L38.7,93.5z M44.2,97.1l-1.9-1l-3.4,6.7l1.9,1c0.9,0.5,1.7,0.7,2.5,0.7
	c1.3,0,2.3-0.7,3-2.1C47.5,100.1,46.8,98.4,44.2,97.1z M44.6,101.5c-0.4,0.8-1.1,1.2-1.8,1.2c-0.3,0-0.6-0.1-0.9-0.2l-0.5-0.2
	l1.9-3.8l0.5,0.2c0.5,0.2,0.9,0.7,1,1.2C44.9,100.3,44.9,100.9,44.6,101.5z M48.4,107l4.5,1.2l0.4-1.6l-2.6-0.7l0.4-1.4l2.4,0.6
	l0.4-1.6l-2.4-0.6l0.3-1.2l2.6,0.7l0.4-1.6l-4.5-1.2L48.4,107z M59.4,101.5l-2.2-0.1l-0.4,7.5L59,109c0.2,0,0.3,0,0.5,0
	c2.5,0,3.9-1.2,4-3.5c0.1-1.2-0.2-2.1-0.8-2.7C62,102,60.9,101.6,59.4,101.5z M59.3,107.4l-0.5,0l0.2-4.2l0.5,0c1,0.1,2,0.8,1.9,2.2
	C61.4,106.8,60.3,107.4,59.3,107.4z M70.1,100.9l-1.3,7.9l2-0.4l0.3-1.7l2.4-0.5l0.9,1.4l2.1-0.4l-4.4-6.7L70.1,100.9z M71.2,105
	l0.2-2l1,1.7L71.2,105z M77.2,104.8l0.6,1.8l1.8-0.6l-0.7-1.8L77.2,104.8z M80.8,97.2l-1.9,1l3.6,6.6l1.9-1c2.5-1.3,3.2-3.1,2-5.3
	C85.2,96.3,83.3,95.9,80.8,97.2z M83.9,102.3l-0.5,0.2l-2-3.7l0.5-0.2c0.3-0.2,0.6-0.3,1-0.3c0.8,0,1.4,0.4,1.8,1.2
	C85.3,100.6,84.7,101.8,83.9,102.3z M87.8,99.6l1.1,1.6l1.6-1.1l-1.1-1.6L87.8,99.6z M90.8,90l-0.3,2.9l1.6,0.2l0.1-1.2l3.6,3.6
	l1.4-1.3l-5.3-5.3L90.8,90z M100.9,86.1c-0.6-0.5-1.3-0.5-2.1-0.2c0-0.7-0.4-1.4-0.8-1.7c-0.9-0.7-2.2-0.3-3.1,0.9
	c-0.9,1.2-0.8,2.5,0.2,3.2c0.5,0.4,1.2,0.5,1.8,0.2c0,0.8,0.2,1.4,0.8,1.9c0.4,0.3,0.9,0.5,1.3,0.5c0.8,0,1.5-0.5,2.1-1.3
	c0.5-0.7,0.8-1.4,0.7-2.1C101.8,86.9,101.5,86.5,100.9,86.1z M97.4,86.6c-0.3,0.2-0.5,0.3-0.8,0.3c-0.1,0-0.2,0-0.3-0.1
	c-0.4-0.3-0.2-0.7,0-1c0.1-0.2,0.3-0.3,0.5-0.3c0.1,0,0.3,0,0.4,0.1C97.3,85.9,97.4,86.3,97.4,86.6z M99.9,88.6
	c-0.3,0.3-0.7,0.4-1.1,0.2c-0.3-0.2-0.4-0.5-0.3-1c0.5-0.4,0.9-0.4,1.3-0.2c0.2,0.1,0.2,0.3,0.3,0.4
	C100.1,88.2,100.1,88.4,99.9,88.6z M104.3,78.7c-1.3-0.6-2.5-0.3-3.2,1c-0.2,0.4-0.2,0.7-0.2,1c-0.5-0.4-0.9-1-0.5-1.7
	c0.2-0.4,0.4-0.6,0.7-0.9l0.3-0.2l-1.4-1l-0.2,0.2c-0.4,0.4-0.7,0.8-0.9,1.3c-0.4,0.7-0.4,1.5-0.2,2.2c0.4,1.2,1.6,2,2.6,2.5
	c0.8,0.4,1.5,0.6,2.2,0.6c1,0,1.7-0.5,2.1-1.4C106.4,80.8,105.9,79.5,104.3,78.7z M104.3,81.6c-0.1,0.2-0.3,0.4-0.6,0.4
	c-0.2,0-0.4-0.1-0.6-0.2c-0.4-0.2-0.6-0.4-0.7-0.6c0-0.1,0-0.3,0-0.4c0.1-0.2,0.3-0.3,0.6-0.3c0.2,0,0.4,0.1,0.7,0.2
	c0.3,0.2,0.6,0.4,0.6,0.6C104.3,81.3,104.3,81.4,104.3,81.6z M107,71.2c-1.5-0.4-2.7,0.2-3.1,1.7c0,0.1-0.1,0.3-0.1,0.4l-0.9-0.3
	l0.8-2.6l-1.5-0.4l-1.3,4.3l4.2,1.3l0-0.4c0-0.4,0.1-0.8,0.2-1.2c0.1-0.4,0.5-1.2,1.3-1c0.9,0.3,0.7,1.2,0.6,1.5
	c-0.2,0.5-0.4,0.9-0.7,1.2l-0.2,0.3l1.7,0.6l0.1-0.2c0.3-0.5,0.5-1.1,0.7-1.6c0.3-0.9,0.2-1.7-0.1-2.3
	C108.2,71.8,107.7,71.4,107,71.2z M25.1,61.2C25.1,82,42,98.9,62.8,98.9c20.8,0,37.7-16.9,37.7-37.8c0-20.8-16.9-37.7-37.7-37.7
	C42,23.4,25.1,40.4,25.1,61.2z M62.8,24.7c20.1,0,36.4,16.4,36.4,36.4c0,20.1-16.4,36.4-36.4,36.4c-20.1,0-36.4-16.3-36.4-36.4
	C26.4,41.1,42.7,24.7,62.8,24.7z M62.8,9.5c-28.5,0-51.6,23.2-51.6,51.6c0,28.5,23.2,51.6,51.6,51.6c28.5,0,51.6-23.2,51.6-51.6
	C114.5,32.7,91.3,9.5,62.8,9.5z M62.8,111.5c-27.7,0-50.3-22.6-50.3-50.3c0-27.7,22.6-50.3,50.3-50.3c27.7,0,50.3,22.6,50.3,50.3
	C113.1,88.9,90.6,111.5,62.8,111.5z"/>
</svg>
